<svg width="143" height="150" viewBox="0 0 143 150" fill="none" xmlns="http://www.w3.org/2000/svg">
<rect width="143" height="150" rx="25" fill="white" fill-opacity="0.87"/>
<path d="M45 36C45 30.4772 49.4772 26 55 26V26C60.5228 26 65 30.4772 65 36V114C65 119.523 60.5228 124 55 124V124C49.4772 124 45 119.523 45 114V36Z" fill="#4E5CA6"/>
<path d="M70 36C70 30.4772 74.4772 26 80 26H105.636C108.046 26 110 27.9537 110 30.3636V30.3636C110 38.9994 102.999 46 94.3636 46H78.7273C73.9073 46 70 42.0927 70 37.2727V36Z" fill="#4E5CA6"/>
<path d="M70 77C70 71.4772 74.4772 67 80 67H98.6364C101.046 67 103 68.9537 103 71.3636V71.3636C103 79.9994 95.9994 87 87.3636 87H77.2C73.2236 87 70 83.7764 70 79.8V77Z" fill="#4E5CA6"/>
</svg>
