<svg width="545" height="290" viewBox="0 0 545 290" fill="none" xmlns="http://www.w3.org/2000/svg">
<g clip-path="url(#clip0_13_2)">
<rect x="53" y="73" width="143" height="150" rx="25" fill="white" fill-opacity="0.87"/>
<path d="M98 109C98 103.477 102.477 99 108 99V99C113.523 99 118 103.477 118 109V187C118 192.523 113.523 197 108 197V197C102.477 197 98 192.523 98 187V109Z" fill="#4E5CA6"/>
<path d="M123 109C123 103.477 127.477 99 133 99H158.636C161.046 99 163 100.954 163 103.364V103.364C163 111.999 155.999 119 147.364 119H131.727C126.907 119 123 115.093 123 110.273V109Z" fill="#4E5CA6"/>
<path d="M123 150C123 144.477 127.477 140 133 140H151.636C154.046 140 156 141.954 156 144.364V144.364C156 152.999 148.999 160 140.364 160H130.2C126.224 160 123 156.776 123 152.8V150Z" fill="#4E5CA6"/>
<path d="M289.464 115.28V124.208H261.144V143.888H283.224V152.816H261.144V182H250.2V115.28H289.464ZM347.51 129.104V182H336.566V175.76C334.838 177.936 332.566 179.664 329.75 180.944C326.998 182.16 324.054 182.768 320.918 182.768C316.758 182.768 313.014 181.904 309.686 180.176C306.422 178.448 303.83 175.888 301.91 172.496C300.054 169.104 299.126 165.008 299.126 160.208V129.104H309.974V158.576C309.974 163.312 311.158 166.96 313.526 169.52C315.894 172.016 319.126 173.264 323.222 173.264C327.318 173.264 330.55 172.016 332.918 169.52C335.35 166.96 336.566 163.312 336.566 158.576V129.104H347.51ZM358.302 155.312C358.302 150 359.39 145.296 361.566 141.2C363.806 137.104 366.814 133.936 370.59 131.696C374.43 129.392 378.654 128.24 383.262 128.24C387.422 128.24 391.038 129.072 394.11 130.736C397.246 132.336 399.742 134.352 401.598 136.784V129.104H412.638V182H401.598V174.128C399.742 176.624 397.214 178.704 394.014 180.368C390.814 182.032 387.166 182.864 383.07 182.864C378.526 182.864 374.366 181.712 370.59 179.408C366.814 177.04 363.806 173.776 361.566 169.616C359.39 165.392 358.302 160.624 358.302 155.312ZM401.598 155.504C401.598 151.856 400.83 148.688 399.294 146C397.822 143.312 395.87 141.264 393.438 139.856C391.006 138.448 388.382 137.744 385.566 137.744C382.75 137.744 380.126 138.448 377.694 139.856C375.262 141.2 373.278 143.216 371.742 145.904C370.27 148.528 369.534 151.664 369.534 155.312C369.534 158.96 370.27 162.16 371.742 164.912C373.278 167.664 375.262 169.776 377.694 171.248C380.19 172.656 382.814 173.36 385.566 173.36C388.382 173.36 391.006 172.656 393.438 171.248C395.87 169.84 397.822 167.792 399.294 165.104C400.83 162.352 401.598 159.152 401.598 155.504ZM423.365 155.312C423.365 150 424.453 145.296 426.629 141.2C428.869 137.104 431.877 133.936 435.653 131.696C439.493 129.392 443.749 128.24 448.421 128.24C451.877 128.24 455.269 129.008 458.597 130.544C461.989 132.016 464.677 134 466.661 136.496V110.96H477.701V182H466.661V174.032C464.869 176.592 462.373 178.704 459.173 180.368C456.037 182.032 452.421 182.864 448.325 182.864C443.717 182.864 439.493 181.712 435.653 179.408C431.877 177.04 428.869 173.776 426.629 169.616C424.453 165.392 423.365 160.624 423.365 155.312ZM466.661 155.504C466.661 151.856 465.893 148.688 464.357 146C462.885 143.312 460.933 141.264 458.501 139.856C456.069 138.448 453.445 137.744 450.629 137.744C447.813 137.744 445.189 138.448 442.757 139.856C440.325 141.2 438.341 143.216 436.805 145.904C435.333 148.528 434.597 151.664 434.597 155.312C434.597 158.96 435.333 162.16 436.805 164.912C438.341 167.664 440.325 169.776 442.757 171.248C445.253 172.656 447.877 173.36 450.629 173.36C453.445 173.36 456.069 172.656 458.501 171.248C460.933 169.84 462.885 167.792 464.357 165.104C465.893 162.352 466.661 159.152 466.661 155.504Z" fill="white"/>
</g>
<defs>
<clipPath id="clip0_13_2">
<rect width="545" height="290" fill="white"/>
</clipPath>
</defs>
</svg>
